<?xml version="1.0" encoding="UTF-8" standalone="no"?>
<!-- Created with Inkscape (http://www.inkscape.org/) -->

<svg
   version="1.1"
   id="svg1"
   width="1612.774"
   height="1919.9604"
   viewBox="0 0 1612.7741 1919.9604"
   xmlns="http://www.w3.org/2000/svg"
   xmlns:svg="http://www.w3.org/2000/svg">
  <defs
     id="defs1" />
  <g
     id="g1"
     transform="translate(570.22986,1103.4396)"
     style="display:inline">
    <path
       style="fill:#000000"
       d="m 221.51062,804.0787 c -393.42841,-170.60054 -689.3461,-546.24797 -760.91651,-969.36786 -18.26157,-107.26322 -41.56659,-217.58677 -25.37334,-326.4097 68.73586,-62.97543 184.54862,-71.55363 271.25938,-113.15203 43.01544,-6.18172 203.659847,-101.01814 138.94757,2.59259 -117.53898,186.46463 -177.8729,424.03007 -98.44682,636.979825 80.96746,224.016815 265.251412,393.291235 460.64157,519.923615 74.52808,46.89335 145.48504,-27.28903 206.64126,-62.77486 210.7228,-147.56212 381.08594,-391.58567 360.28248,-658.60029 -10.20766,-132.35123 -88.0897,-253.35521 -198.58582,-325.10314 -11.22283,-54.00318 -31.49031,-202.62851 69.86571,-146.64429 123.27487,39.53221 247.15236,79.14431 367.2177,127.2767 54.2176,60.51844 15.7266,157.74147 22.6922,233.50333 C 1018.7461,49.595108 882.69632,376.62652 631.51091,592.85262 524.07396,685.10613 403.31977,766.19625 270.46203,815.97547 253.19437,818.72723 236.90315,810.4948 221.51062,804.0787 Z M 339.292,766.8993 C 607.36054,637.74932 825.3109,407.51833 932.14886,128.96387 948.85566,94.745395 976.67015,22.555447 931.02187,91.312246 822.85591,240.26082 635.18247,296.62609 512.70287,430.86181 434.66146,493.90354 357.4224,567.44747 260.64114,598.9377 152.24773,550.23582 59.552543,470.19199 -28.056624,390.69202 -203.3964,225.14606 -339.02646,-10.819888 -305.9092,-259.36275 c 13.48881,-135.63046 78.20264,-258.5597 145.15083,-373.96982 -122.00059,48.70874 -254.27575,76.57082 -369.72564,140.56725 -45.25293,68.31414 -6.48254,162.03493 -5.3332,239.82294 16.45608,103.90922 35.46594,209.4607 73.91743,307.380751 103.8364,91.360789 232.26663,153.468959 339.39048,239.830229 -113.60472,-59.42812 -213.05292,-143.68953 -324.91697,-206.042582 33.59227,106.685222 99.09781,210.005282 167.69551,301.522152 137.02491,177.45853 322.223239,315.95197 527.3351,405.0579 33.2927,9.47549 62.71588,-16.15935 91.68766,-27.90677 z M 805.82482,197.369 C 881.15616,148.96492 927.90959,71.243257 976.4334,-0.89814219 1010.3269,-151.29893 1036.83,-307.58631 1019.5573,-461.85387 988.57,-547.50493 861.25015,-536.51626 787.57485,-577.00607 c -60.66263,-6.72289 -162.80854,-79.68877 -198.15627,-41.16148 -37.77891,90.05279 23.81322,147.69611 93.07137,194.69315 147.49368,152.91713 133.6043,397.776539 43.79122,576.59242 -22.31435,56.62174 -81.95859,123.94952 -99.54905,162.32791 61.32645,-36.77434 120.56503,-77.02632 179.0927,-118.07693 z M 245.42661,437.5346 C 147.11221,292.64707 125.60041,85.226668 233.55723,-61.092486 333.43308,-210.16749 493.60681,-318.38311 555.75327,-492.063 c 60.06932,21.78217 67.15845,132.0672 76.69855,196.73217 15.66628,173.82623 -115.94399,308.12645 -224.06743,426.66919 -76.12462,81.81838 -148.17454,181.71976 -140.45167,299.43211 2.91995,15.21751 -16.67466,21.828 -22.50611,6.76413 z M 272.52547,299.8231 C 329.44739,161.76179 459.44334,73.834164 538.7671,-50.005651 c 71.35662,-90.660919 98.82516,-211.733919 67.38938,-323.415749 -0.42115,-69.30594 -51.0183,-124.80291 -74.79315,-30.24897 -88.63924,158.13342 -253.57902,261.43768 -328.08965,428.444164 -46.22013,127.350436 -27.82003,279.035166 48.32506,389.808906 8.42917,-37.80399 7.22107,-77.82128 20.92673,-114.7596 z M 13.58936,91.0346 c -115.1137,-134.633988 -162.00776,-327.76997 -100.817031,-496.70694 69.90252,-220.488 277.779421,-378.01411 302.799341,-615.93846 -4.68131,-42.6231 9.64969,-122.8455 56.91398,-56.5399 102.15206,119.05164 193.77416,279.44543 141.56257,440.89971 C 354.58415,-428.99418 154.75113,-304.51493 74.020059,-108.22943 38.872804,-32.358489 67.777201,56.409654 55.792299,131.0323 36.914639,124.94397 26.521464,104.8381 13.58936,91.0346 Z M 59.69121,-124.8382 C 134.22767,-299.63626 300.968,-414.47048 375.58488,-589.85324 435.45264,-705.40169 412.38434,-845.19379 342.01637,-950.51807 317.44823,-996.18494 229.90238,-1136.7194 230.25055,-1008.8762 203.67319,-747.0408 -47.64197,-581.92481 -92.539846,-326.68634 -115.96429,-182.10282 -60.621925,-30.759715 30.589367,79.876812 49.833928,15.384759 30.19577,-60.610868 59.69121,-124.8382 Z"
       id="path5" />
  </g>
</svg>
