<svg width="640" height="420" viewBox="0 0 640 420" fill="none" xmlns="http://www.w3.org/2000/svg">
  <rect width="640" height="420" rx="24" fill="#F8FAFC"/>
  <rect x="40" y="40" width="560" height="340" rx="16" fill="white" stroke="#E2E8F0"/>
  <rect x="72" y="76" width="210" height="24" rx="6" fill="#CCFBF1"/>
  <rect x="72" y="116" width="496" height="16" rx="5" fill="#E2E8F0"/>
  <rect x="72" y="142" width="470" height="16" rx="5" fill="#E2E8F0"/>
  <rect x="72" y="168" width="430" height="16" rx="5" fill="#E2E8F0"/>
  <rect x="72" y="220" width="240" height="120" rx="12" fill="#F1F5F9"/>
  <rect x="328" y="220" width="240" height="120" rx="12" fill="#F1F5F9"/>
  <rect x="90" y="246" width="180" height="14" rx="5" fill="#CBD5E1"/>
  <rect x="90" y="270" width="150" height="14" rx="5" fill="#CBD5E1"/>
  <rect x="346" y="246" width="180" height="14" rx="5" fill="#CBD5E1"/>
  <rect x="346" y="270" width="150" height="14" rx="5" fill="#CBD5E1"/>
</svg>
